<svg id="Layer_1" enable-background="new 0 0 511.969 511.969" height="512" viewBox="0 0 511.969 511.969" width="512" xmlns="http://www.w3.org/2000/svg"><g id="XMLID_1208_"><g id="XMLID_1386_"><path d="m210.562 93.985h-56c-11.046 0-20 8.954-20 20 0 11.046 8.954 20 20 20h56c11.046 0 20-8.954 20-20 0-11.046-8.954-20-20-20z" fill="#954526"/></g><g id="XMLID_1318_"><circle id="XMLID_1232_" cx="102" cy="325.985" fill="#e2e9ee" r="92"/></g><g id="XMLID_1316_"><circle id="XMLID_1202_" cx="102" cy="325.985" fill="#a7bdcd" r="24"/></g><g id="XMLID_1388_"><circle id="XMLID_1179_" cx="409.97" cy="325.985" fill="#e2e9ee" r="92"/></g><g id="XMLID_1387_"><circle id="XMLID_1177_" cx="409.97" cy="325.985" fill="#a7bdcd" r="24"/></g><g id="XMLID_1018_"><circle id="XMLID_304_" cx="225.5" cy="325.985" fill="#e2e9ee" r="31.5"/></g><g id="XMLID_1233_"><path id="XMLID_1236_" d="m409.969 223.985c-3.559 0-7.075.185-10.542.542l-24.776-120.542h37.199c6.682 0 12.118 5.437 12.118 12.119s-5.437 12.118-12.118 12.118c-5.522 0-10 4.477-10 10s4.478 10 10 10c17.71 0 32.118-14.408 32.118-32.118s-14.408-32.119-32.118-32.119h-49.464c-3.005 0-5.852 1.352-7.75 3.681-1.899 2.329-2.65 5.389-2.045 8.333l13.589 66.114h-166.126l-4.076-18.127h14.584c16.542 0 30-13.458 30-30s-13.458-30-30-30h-56c-16.542 0-30 13.458-30 30s13.458 30 30 30h20.917l17.326 77.052-26.131 26.131c-17.614-14.479-40.146-23.184-64.674-23.184-10.078 0-20.036 1.468-29.598 4.363-5.286 1.601-8.273 7.183-6.673 12.469s7.181 8.274 12.469 6.673c7.681-2.326 15.689-3.505 23.802-3.505 19.01 0 36.516 6.521 50.439 17.419l-34.54 34.54c-4.748-2.523-10.158-3.959-15.899-3.959-18.748 0-34 15.252-34 34s15.252 34 34 34c15.269 0 28.217-10.118 32.497-24h48.871c-4.951 40.512-39.541 72-81.368 72-45.215 0-82-36.785-82-82 0-7.989 1.144-15.88 3.4-23.454 1.577-5.293-1.435-10.862-6.728-12.439-5.293-1.578-10.862 1.436-12.439 6.728-2.809 9.428-4.233 19.241-4.233 29.165 0 56.243 45.757 102 102 102 45.132 0 83.505-29.467 96.908-70.17 7.207 6.031 16.481 9.67 26.592 9.67 7.824 0 15.148-2.178 21.4-5.958l15.058 15.058c-1.327 1.697-2.125 3.828-2.125 6.149 0 5.523 4.478 10 10 10h24.833c5.522 0 10-4.477 10-10s-4.478-10-10-10h-8.273l-25.35-25.35c3.779-6.253 5.958-13.576 5.958-21.4s-2.178-15.147-5.958-21.4l111.504-111.504 7.286 35.449c-41.578 12.884-71.864 51.698-71.864 97.455 0 56.243 45.757 102 102 102s102-45.757 102-102-45.757-101.999-102-101.999zm-265.406-110c0-5.514 4.486-10 10-10h56c5.514 0 10 4.486 10 10s-4.486 10-10 10h-56c-5.515 0-10-4.486-10-10zm210.667 68.127-108.33 108.33c-5.695-3.441-12.277-5.555-19.317-5.905l-23.031-102.426h150.678zm-147.28 106.278c-3.267 1.531-6.304 3.473-9.042 5.764-3.984-12.1-10.171-23.208-18.092-32.843l17.181-17.181zm-75.908 21.696 34.54-34.54c8.956 11.442 14.938 25.307 16.787 40.438h-48.871c-.635-2.056-1.463-4.027-2.456-5.898zm-30.042 29.899c-7.72 0-14-6.28-14-14s6.28-14 14-14 14 6.28 14 14-6.28 14-14 14zm139.904-11.738c-3.905-3.905-10.237-3.905-14.142 0s-3.905 10.237 0 14.142l4.126 4.126c-2.019.63-4.165.969-6.389.969-11.855 0-21.5-9.645-21.5-21.5s9.645-21.5 21.5-21.5 21.5 9.645 21.5 21.5c0 2.224-.34 4.37-.969 6.389zm168.065 79.738c-45.215 0-82-36.785-82-82 0-36.098 23.456-66.8 55.919-77.723l9.837 47.861c-10.57 5.773-17.757 16.993-17.757 29.862 0 18.748 15.252 34 34 34s34-15.252 34-34c0-17.615-13.465-32.141-30.642-33.833l-9.843-47.887c2.142-.169 4.3-.28 6.485-.28 45.215 0 82 36.785 82 82s-36.784 82-81.999 82zm0-96c7.72 0 14 6.28 14 14s-6.28 14-14 14-14-6.28-14-14 6.281-14 14-14z"/><path id="XMLID_1290_" d="m36.745 271.135c2.63 0 5.21-1.07 7.07-2.93s2.93-4.44 2.93-7.07-1.07-5.21-2.93-7.07-4.44-2.93-7.07-2.93-5.21 1.07-7.07 2.93-2.93 4.44-2.93 7.07 1.07 5.21 2.93 7.07 4.44 2.93 7.07 2.93z"/></g></g></svg>